/* XPM */
static char *icon[]={
"32 32 112 2",
"Qt c None",
"#K c #004b4b",
"#L c #004c4c",
"#J c #004e4e",
"#H c #004f4f",
"#G c #005151",
"#F c #005252",
"#E c #005555",
"#D c #005656",
"#N c #005757",
"#A c #005858",
"#w c #005959",
"#Q c #005a5a",
"#o c #005c5c",
"#e c #005d5d",
"#P c #005e5e",
".6 c #005f5f",
".Y c #006060",
".R c #006363",
"#T c #006464",
"#S c #006666",
".I c #006767",
".P c #006969",
"#R c #006a6a",
".O c #006b6b",
".D c #006c6c",
"#O c #006d6d",
".C c #006e6e",
".V c #007070",
".4 c #007171",
"#M c #007272",
".x c #007474",
"#a c #007575",
".w c #007777",
"#I c #007878",
"## c #007979",
"#l c #007a7a",
".s c #007b7b",
"#k c #007d7d",
"#t c #007e7e",
".r c #007f7f",
".K c #008080",
"#s c #008181",
".n c #008383",
"#r c #008484",
"#y c #008585",
".m c #008686",
"#q c #008989",
".i c #008a8a",
".S c #008c8c",
".h c #008d8d",
"#i c #008e8e",
"#h c #009090",
".d c #009191",
".Z c #009292",
".c c #009494",
".9 c #009595",
".b c #009797",
".7 c #009898",
".a c #009a9a",
".2 c #009c9c",
".# c #009d9d",
".f c #009e9e",
".1 c #009f9f",
".e c #00a0a0",
".0 c #00a1a1",
".k c #00a2a2",
".8 c #00a3a3",
".j c #00a5a5",
".p c #00a6a6",
".T c #00a7a7",
"#g c #00a8a8",
".o c #00a9a9",
".u c #00aaaa",
".L c #00abab",
"#f c #00acac",
".t c #00adad",
".z c #00aeae",
".y c #00b1b1",
".E c #00b2b2",
".J c #00b4b4",
"#p c #00b7b7",
"#x c #00bcbc",
"#B c #00c0c0",
".Q c #00c4c4",
".X c #00c9c9",
".W c #00cdcd",
".5 c #00d2d2",
"#d c #00d7d7",
"#c c #00dbdb",
"#b c #00e0e0",
"#n c #00e5e5",
"#m c #00eaea",
"#v c #00efef",
"#u c #00f4f4",
"#z c #00f9f9",
"#C c #00ffff",
".g c #16ffff",
".l c #2cffff",
".q c #43ffff",
".v c #59ffff",
".A c #70ffff",
".N c #808000",
".F c #87ffff",
".M c #9fffff",
".U c #b7ffff",
".G c #c0c000",
".3 c #cfffff",
"#. c #e7ffff",
".H c #ffff00",
".B c #ffff40",
"#j c #ffffff",
"QtQtQtQtQtQtQtQtQtQtQtQtQtQtQtQtQtQtQtQtQtQtQtQtQtQtQtQtQtQtQtQt",
"QtQtQtQtQtQtQtQtQtQtQtQtQtQtQtQtQtQtQtQtQtQtQtQtQtQtQtQtQtQtQtQt",
"QtQtQtQtQtQtQtQtQtQtQtQtQt.#.a.b.c.dQtQtQtQtQtQtQtQtQtQtQtQtQtQt",
"QtQtQtQtQtQtQtQtQtQtQt.e.f.g.g.g.g.g.h.iQtQtQtQtQtQtQtQtQtQtQtQt",
"QtQtQtQtQtQtQtQtQt.j.k.l.l.l.l.l.l.l.l.l.m.nQtQtQtQtQtQtQtQtQtQt",
"QtQtQtQtQtQtQt.o.p.q.q.q.q.q.q.q.q.q.q.q.q.q.r.sQtQtQtQtQtQtQtQt",
"QtQtQtQtQt.t.u.v.v.v.v.v.v.v.v.v.v.v.v.v.v.v.v.v.w.xQtQtQtQtQtQt",
"QtQtQt.y.z.A.A.A.A.A.A.A.A.A.A.B.A.A.A.A.A.A.A.A.A.A.C.DQtQtQtQt",
"QtQt.E.F.F.F.F.F.F.F.F.F.F.F.G.H.G.F.F.F.F.F.F.F.F.F.F.F.IQtQtQt",
"Qt.J.K.t.L.M.M.M.M.M.M.M.M.M.M.N.M.M.M.M.M.M.M.M.M.M.O.P.Q.RQtQt",
"Qt.E.K.m.S.T.U.U.U.U.U.U.U.U.U.U.U.U.U.U.U.U.U.U.V.D.W.X.Q.YQtQt",
"Qt.y.K.m.S.Z.0.1.2.3.3.3.3.3.3.3.3.3.3.3.3.3.x.4.C.5.W.X.Q.6QtQt",
"Qt.z.K.m.S.Z.7.f.8.b.9#.#.#.#.#.#.#.#.#.###a#b#c#d.5.B.X.Q#eQtQt",
"Qt#f.K.m.S.Z.7.f.8#g.t#h#i#j#j#j#j#j#k#l#m#n#b#c#d.G.H.G.Q#oQtQt",
"Qt.L.K.m.S.Z.7.f.8#g.t.E#p#q.m#r#s#t#u#v#m#n#b#c#d.5.N.X.Q#wQtQt",
"Qt.o.K.m.S.Z.7.f.8#g.t.E#p#x#y#j.r#z#u#v#m#n#b#c#d.5.W.X.Q#AQtQt",
"Qt#g.K.m.S.Z.7.f.8#g.t.E.B#x#B#s#C#z.B#v#m#n#b#c#d.5.W.X.Q#DQtQt",
"Qt.p.K.m.S.Z.7.f.8#g.t.G.H.G#B.r#C.G.H.G#m#n#b#c#d.5.W.X.Q#EQtQt",
"Qt.j.K.m.S.Z.7.f.B#g.t.E.N#x#B#t#C#z.N#v#m#n.B#c#d.5.W.X.Q#FQtQt",
"Qt.k.K.m.S.Z.7.G.H.G.t.E#p#x#B.s#C#z#u#v#m.G.H.G#d.5.W.X.Q#GQtQt",
"Qt.0.K.m.B.Z.7.f.N#g.t.E#p#x#B#l#C#z#u#v#m#n.N#c#d.5.B.X.Q#HQtQt",
"Qt.1.K.G.H.G.7.f.8#g.t.E#p#x#B#I#C#z#u#v#m#n#b#c#d.G.H.G.Q#JQtQt",
"Qt.f.K.m.N.Z.7.f.8#g.t.E#p#x#B#a#C#z#u#v#m#n#b#c#d.5.N.X.Q#KQtQt",
"QtQt.a.m.S.Z.7.f.8#g.t.E#p#x#B.x#C#z#u#v#m#n#b#c#d.5.W.X#LQtQtQt",
"QtQtQt.9.Z.Z.7.f.8#g.t.E#p#x#B#M#C#z.B#v#m#n#b#c#d.5#G#JQtQtQtQt",
"QtQtQtQtQt#i.i.f.8#g.t.E#p#x#B.4#C.G.H.G#m#n#b#c#D#FQtQtQtQtQtQt",
"QtQtQtQtQtQtQt.m#r#g.t.E#p#x#B.C#C#z.N#v#m#n#w#NQtQtQtQtQtQtQtQt",
"QtQtQtQtQtQtQtQtQt.K#k.E#p#x#B#O#C#z#u#v#P#QQtQtQtQtQtQtQtQtQtQt",
"QtQtQtQtQtQtQtQtQtQtQt#I.x#x#B.O#C#z.R.6QtQtQtQtQtQtQtQtQtQtQtQt",
"QtQtQtQtQtQtQtQtQtQtQtQtQt.V#O#R#S#TQtQtQtQtQtQtQtQtQtQtQtQtQtQt",
"QtQtQtQtQtQtQtQtQtQtQtQtQtQtQtQtQtQtQtQtQtQtQtQtQtQtQtQtQtQtQtQt",
"QtQtQtQtQtQtQtQtQtQtQtQtQtQtQtQtQtQtQtQtQtQtQtQtQtQtQtQtQtQtQtQt"};
